<svg id="图层_1" data-name="图层 1" xmlns="http://www.w3.org/2000/svg" viewBox="0 0 67.59 100"><defs><style>.cls-1{fill:#fc4c02;}</style></defs><title>favicon</title><path class="cls-1" d="M81.14,63.67Q78.62,79.44,69.7,89.06,59.58,100,43.31,100q-13.37,0-20.6-9Q16.2,82.93,16.2,70.53V67.77a24.55,24.55,0,0,1,.49-3.85q2.4-15.53,12-25.26A34.37,34.37,0,0,1,54.16,28.19q11.93,0,19.51,7.46,8.08,7.93,8.08,21.05A46,46,0,0,1,81.14,63.67Zm-26-53.07a12.14,12.14,0,0,1-4.31,7.71,12.83,12.83,0,0,1-8.51,3,8.06,8.06,0,0,1-6.17-2.84,9.42,9.42,0,0,1-2.58-6.56V10.72A12.22,12.22,0,0,1,46,0a8.91,8.91,0,0,1,6.51,2.77A9,9,0,0,1,55.24,9.4,5,5,0,0,1,55.12,10.6Zm1.21,52.72c.24-1.93.38-3.2.42-3.84s.06-1.68.06-3.13a15.44,15.44,0,0,0-1.21-6.6,4.28,4.28,0,0,0-4.21-2.52q-3.49,0-6.39,5.64a37.27,37.27,0,0,0-3.37,11.41c-.32,1.92-.53,3.44-.61,4.56s-.12,2.28-.12,3.48a13.33,13.33,0,0,0,1.27,6.3A4.55,4.55,0,0,0,46.57,81q4.57,0,7.1-5.88A44.33,44.33,0,0,0,56.33,63.32ZM83.68,10.66A12.6,12.6,0,0,1,79.6,18.3a11.42,11.42,0,0,1-7.91,3,9.21,9.21,0,0,1-6.59-2.79A8.85,8.85,0,0,1,62.23,12V10.91a11.44,11.44,0,0,1,4-7.88,12.81,12.81,0,0,1,8.61-3,8.34,8.34,0,0,1,6.26,2.79A9.19,9.19,0,0,1,83.8,9.33,6.35,6.35,0,0,1,83.68,10.66Z" transform="translate(-16.2)"/></svg>